<svg width="20" height="12" viewBox="0 0 20 12" fill="none" xmlns="http://www.w3.org/2000/svg">
<path fill-rule="evenodd" clip-rule="evenodd" d="M4.86122 9.94707L0 9.57494V7.6882L4.14195 8.00527L4.59066 2.14355L9.40246 2.87509L10.53 6.50847L10.2618 10.0114C10.2359 10.3491 9.87235 10.3542 9.87235 10.3542L9.47917 10.3147C9.47917 10.3147 9.45127 8.02963 7.31759 7.86629C5.01511 7.69003 4.86122 9.94707 4.86122 9.94707ZM6.24336 5.81714L9.85468 6.45678L9.04674 3.7016L6.43684 3.28957L6.24336 5.81714Z" fill="black"/>
<path d="M3.33369 7.47222L0 7.21702V0.000244141L3.88293 0.297479L3.33369 7.47222Z" fill="black"/>
<path fill-rule="evenodd" clip-rule="evenodd" d="M20.0068 3.5083L15.4637 4.17789L11.6482 7.61373L12.0627 10.4261L13.4356 11.1816C13.2351 10.9308 13.0965 10.6242 13.0459 10.2812C12.8976 9.27516 13.5995 8.33071 14.6055 8.18241C15.6116 8.03414 16.556 8.73595 16.7043 9.74203C16.7549 10.085 16.7106 10.4186 16.591 10.7166L20.0068 10.2131V5.91455L18.6232 6.11848L18.3469 4.24353L20.0068 3.99889V3.5083ZM17.8896 4.31093L18.166 6.18588L14.4161 6.73856L16.0147 4.58727L17.8896 4.31093Z" fill="black"/>
<path fill-rule="evenodd" clip-rule="evenodd" d="M13.5033 10.2139C13.3921 9.45931 13.9151 8.7281 14.6925 8.61353C15.4699 8.49896 16.1816 9.04817 16.2928 9.80271C16.404 10.5573 15.881 11.2885 15.1036 11.4031C14.3491 11.5143 13.6145 10.9684 13.5033 10.2139ZM15.5612 9.91057C15.5072 9.54471 15.1662 9.2913 14.8003 9.34522C14.4345 9.39913 14.1811 9.74018 14.235 10.106C14.2889 10.4719 14.6299 10.7253 14.9958 10.6714C15.3616 10.6175 15.6151 10.2764 15.5612 9.91057Z" fill="black"/>
<path fill-rule="evenodd" clip-rule="evenodd" d="M7.00333 12.0022C5.97774 11.9237 5.20999 11.0287 5.28848 10.0031C5.367 8.97749 6.26203 8.20974 7.28763 8.28824C8.31322 8.36675 9.08098 9.26181 9.00248 10.2874C8.92397 11.313 8.0289 12.0807 7.00333 12.0022ZM8.02819 10.2128C7.99085 10.7007 7.56504 11.0659 7.07711 11.0286C6.58921 10.9912 6.22395 10.5654 6.2613 10.0775C6.29865 9.58959 6.72446 9.22433 7.21238 9.26168C7.70028 9.29902 8.06554 9.72484 8.02819 10.2128Z" fill="black"/>
<path d="M13.6975 1.30897L12.3421 3.09318C12.2117 3.26473 11.9397 3.20009 11.9005 2.98826L11.6625 1.70331L11.5735 3.5396C11.5625 3.76548 11.2798 3.86016 11.135 3.68643L10.3993 2.80351L10.9869 4.48257C11.013 4.55706 10.9737 4.63858 10.8993 4.66465C10.8248 4.69073 10.7432 4.65147 10.7172 4.57698L10.0607 2.7014C9.96945 2.44058 10.3087 2.24829 10.4856 2.46059L11.2927 3.42919L11.3928 1.36588C11.407 1.07162 11.8309 1.04302 11.8846 1.33269L12.166 2.85243L13.5966 0.969345C13.7639 0.749092 14.1117 0.926464 14.0317 1.19127L13.5053 2.93239L14.726 2.36611C14.9691 2.25334 15.1936 2.55266 15.0172 2.75447L13.3839 4.62379C13.3319 4.68324 13.2417 4.68933 13.1822 4.63738C13.1228 4.58545 13.1167 4.49517 13.1687 4.43575L14.6852 2.70009L13.5493 3.22703C13.355 3.31721 13.1454 3.13522 13.2074 2.93015L13.6975 1.30897Z" fill="black"/>
</svg>
