<svg width="135" height="169" viewBox="0 0 135 169" fill="none" xmlns="http://www.w3.org/2000/svg">
<path d="M12.5474 77C12.5474 43.3106 39.8581 16 73.5474 16V16C107.237 16 134.547 43.3106 134.547 77V159C134.547 164.523 130.07 169 124.547 169H22.5474C17.0246 169 12.5474 164.523 12.5474 159V77Z" fill="#DCEE6A" fill-opacity="0.6"/>
<path d="M77.9779 20.1847C77.9779 22.6808 77.2763 24.5017 76.0396 24.5017C74.8029 24.5017 73.1653 21.3098 73.1653 18.8135C73.1653 16.3171 74.502 15.6646 75.7387 15.6646C76.9754 15.6646 77.9779 17.6884 77.9779 20.1847Z" fill="#1D2345"/>
<path d="M74.0818 19.7286C74.0818 19.7286 75.3806 19.9317 75.7628 22.3694C75.7628 22.3694 75.2277 17.7986 74.2347 17.6972" fill="#1D2345"/>
<path d="M97.763 20.1847C97.763 22.6808 98.465 24.5017 99.7014 24.5017C100.938 24.5017 102.576 21.3098 102.576 18.8135C102.576 16.3171 101.239 15.6646 100.002 15.6646C98.7655 15.6646 97.763 17.6884 97.763 20.1847Z" fill="#1D2345"/>
<path d="M101.659 19.7286C101.659 19.7286 100.36 19.9317 99.9782 22.3694C99.9782 22.3694 100.513 17.7986 101.506 17.6972" fill="#1D2345"/>
<path d="M94.7433 47.238H81.3033V30.4384H94.7433V47.238Z" fill="#1D2345"/>
<mask id="mask0_1121_1429" style="mask-type:luminance" maskUnits="userSpaceOnUse" x="81" y="30" width="14" height="18">
<path d="M94.7433 47.2463H81.3033V30.4467H94.7433V47.2463Z" fill="white"/>
</mask>
<g mask="url(#mask0_1121_1429)">
<path d="M101.189 17.1406C101.189 26.9565 95.876 34.9136 89.3216 34.9136C82.7679 34.9136 77.4542 26.9565 77.4542 17.1406C77.4542 7.32465 82.7679 -0.632772 89.3216 -0.632772C95.876 -0.632772 101.189 7.32465 101.189 17.1406Z" fill="#1D2345"/>
</g>
<path d="M100.419 17.7426C100.419 23.8776 98.2958 29.6016 94.8804 32.269C92.8312 33.8693 89.8067 35.5356 87.803 35.5356C85.7994 35.5356 82.9109 34.0054 80.8617 32.405C77.4466 29.7376 75.3222 23.8776 75.3222 17.7426C75.3222 7.92667 80.9401 3.7738 87.8705 3.7738C94.8009 3.7738 100.419 7.92667 100.419 17.7426Z" fill="#1D2345"/>
<path d="M83.6738 6.67586C83.6738 6.67586 84.3992 19.5859 100.002 16.7595C105.765 15.7153 109.87 -3.01681 94.7444 0.4205C94.7444 0.4205 83.9922 1.9176 81.1341 2.4621C68.437 4.88043 74.7372 17.8416 74.7372 17.8416C74.7372 17.8416 79.0903 7.66858 83.6738 6.67586Z" fill="#1D2345"/>
<path d="M87.1225 18.659C87.1272 19.4876 87.0798 20.31 87.0021 21.1287C86.9616 21.5379 86.9215 21.9471 86.8668 22.3549C86.8168 22.763 86.7567 23.1696 86.6928 23.5762L86.6651 23.4708C86.8285 23.7064 87.0269 23.9398 87.2465 24.1361C87.4649 24.337 87.7209 24.5008 88.028 24.5518C87.7144 24.5901 87.3985 24.4544 87.1319 24.2874C86.8628 24.1116 86.6327 23.8972 86.423 23.6466L86.3901 23.6076L86.3952 23.5412C86.4277 23.1309 86.4642 22.721 86.5105 22.3129C86.5524 21.9037 86.609 21.496 86.6644 21.0886C86.7796 20.2746 86.9248 19.4635 87.1225 18.659Z" fill="#A6B1C3"/>
<path d="M119.645 60.442C119.645 50.8205 105.602 43.0206 88.2793 43.0206C70.9567 43.0206 56.9139 50.8205 56.9139 60.442L71.0625 109.847L108.354 109.574L119.645 60.442Z" fill="#1D2345"/>
<path d="M71.879 106.854L71.0625 109.848C71.0625 109.848 65.8906 125.092 65.3461 135.163C64.802 145.235 64.4867 168.631 64.4867 168.631H116.373C116.373 168.631 114.887 140.879 114.071 132.986C113.254 125.092 108.354 109.576 108.354 109.576L71.879 106.854Z" fill="#1D2345"/>
<path d="M78.1399 43.7004L81.4061 39.8897L95.2888 39.3455L98.5551 43.9725L93.1109 50.7778L78.1399 43.7004Z" fill="#1D2345"/>
<path d="M52.9284 28.1028C52.6275 30.52 52.2118 32.9132 51.6961 35.2892C51.1738 37.6616 50.5498 40.0176 49.6993 42.2977C49.2719 43.4359 48.7803 44.5537 48.176 45.6114C47.8824 46.1453 47.533 46.6475 47.1658 47.1336C46.7788 47.6048 46.3543 48.0505 45.8751 48.4265C44.9287 49.1913 43.8499 49.7795 42.9961 50.6406C42.5735 51.0702 42.2314 51.5866 42.0541 52.1661C41.8725 52.7442 41.8499 53.3602 41.8995 53.9634C41.8426 53.3605 41.8568 52.7435 42.0322 52.1596C42.2029 51.5742 42.5425 51.0476 42.963 50.6096C43.8138 49.7299 44.8882 49.1267 45.8175 48.3557C46.289 47.9761 46.699 47.5337 47.0761 47.0636C47.4331 46.5778 47.7726 46.0778 48.0571 45.5442C48.6428 44.4881 49.1173 43.3717 49.5279 42.2346C50.3456 39.9567 50.9375 37.6025 51.428 35.232C51.9124 32.861 52.2978 30.4642 52.5659 28.0634L52.9284 28.1028Z" fill="#AC54A2"/>
<path d="M52.7471 28.0831C52.7471 28.0831 51.6016 44.6982 46.9035 48.7084C42.2055 52.719 40.3721 57.0732 47.4761 60.7399C54.5809 64.407 57.2158 63.4901 59.8515 60.3964C62.4869 57.3022 56.8723 27.7395 56.8723 27.7395L52.7471 28.0831Z" fill="#AC54A2"/>
<path d="M80.1227 28.0831C80.1227 28.0831 81.2686 44.6982 85.9667 48.7084C90.6648 52.719 92.4978 57.0732 85.3938 60.7399C78.2894 64.407 75.654 63.4901 73.0183 60.3964C70.383 57.3022 73.1434 27.7395 73.1434 27.7395L80.1227 28.0831Z" fill="#AC54A2"/>
<path d="M39.1208 106.055C32.8666 107.825 13.0338 83.7695 13.0338 83.7695L18.3766 77.047L34.2539 89.0562C34.2539 89.0562 41.2069 64.5268 43.6172 62.1876C48.4535 57.4939 56.2257 55.3524 66.5026 55.3524C75.2493 55.3524 81.5232 56.8495 86.6349 60.4232C90.5233 63.1413 91.2972 67.5224 92.7414 71.0079C97.3768 82.1929 100.205 85.7998 100.205 85.7998L112.036 62.9914L119.36 67.0326C119.36 67.0326 109.933 102.703 98.4191 102.223C91.0853 101.918 83.3139 78.7359 83.3139 78.7359C83.3139 78.7359 81.2522 93.6978 81.343 96.6555C81.4331 99.614 87.5853 114.433 87.5853 114.433C74.7131 117.902 61.8844 118.259 49.0903 116.159C49.0903 116.159 53.2428 102.405 53.2931 97.2099C53.3442 92.0143 49.7012 79.249 49.7012 79.249C49.7012 79.249 47.2183 103.764 39.1208 106.055Z" fill="#8889FF"/>
<path d="M56.0656 34.0437C56.0656 35.9208 55.3639 37.2903 54.1272 37.2903C52.8905 37.2903 51.253 34.8898 51.253 33.0123C51.253 31.1349 52.5896 30.6443 53.8263 30.6443C55.063 30.6443 56.0656 32.1659 56.0656 34.0437Z" fill="#E88993"/>
<path d="M52.1695 33.6974C52.4036 33.7039 52.6319 33.7878 52.8427 33.8987C53.0564 34.0095 53.241 34.1715 53.404 34.3509C53.5597 34.5373 53.6925 34.7433 53.7931 34.9636C53.8927 35.1846 53.9682 35.4136 54.0225 35.6474L53.6761 35.7105C53.5579 35.0694 53.419 34.4231 53.2454 33.7947C53.1582 33.4804 53.0601 33.1689 52.9314 32.8731C52.8004 32.5876 52.6513 32.2666 52.3223 32.1696C52.4933 32.162 52.6589 32.2593 52.784 32.3764C52.9113 32.4953 53.0196 32.6321 53.1093 32.7779C53.292 33.0686 53.4255 33.3826 53.543 33.6988C53.7702 34.3363 53.9219 34.9888 54.024 35.6565C54.0386 35.7524 53.9729 35.8422 53.8767 35.8571C53.7851 35.871 53.6998 35.8119 53.6786 35.7233L53.6779 35.7193L53.6035 35.3983C53.5685 35.2947 53.5422 35.1872 53.5014 35.0865C53.4212 34.8841 53.3289 34.6857 53.2045 34.5063C52.9587 34.1507 52.6122 33.8403 52.1695 33.6974Z" fill="#1D2345"/>
<path d="M75.8506 34.0437C75.8506 35.9208 76.5527 37.2903 77.789 37.2903C79.0257 37.2903 80.6633 34.8898 80.6633 33.0123C80.6633 31.1349 79.3266 30.6443 78.0899 30.6443C76.8532 30.6443 75.8506 32.1659 75.8506 34.0437Z" fill="#E88993"/>
<path d="M79.7467 33.6974C79.304 33.8403 78.9575 34.1507 78.7117 34.5063C78.5874 34.6857 78.4951 34.8841 78.4149 35.0865C78.374 35.1872 78.3477 35.2948 78.3127 35.3983L78.2383 35.7193L78.2376 35.7226C78.2157 35.8174 78.1213 35.8765 78.0264 35.8546C77.9364 35.8338 77.8784 35.7466 77.8922 35.6565C77.9944 34.9888 78.1461 34.3363 78.3733 33.6988C78.4907 33.3826 78.6238 33.0686 78.8069 32.778C78.8966 32.6321 79.0049 32.4953 79.1322 32.3764C79.2573 32.2593 79.4229 32.162 79.5939 32.1696C79.265 32.2666 79.1158 32.5876 78.9849 32.8731C78.8561 33.1689 78.758 33.4804 78.6709 33.7947C78.4973 34.4231 78.3583 35.0694 78.2402 35.7105L77.8937 35.6474C77.948 35.4137 78.0235 35.1846 78.1231 34.9636C78.2237 34.7433 78.3565 34.5373 78.5122 34.3509C78.6753 34.1715 78.8602 34.0096 79.0735 33.8987C79.2843 33.7878 79.5126 33.7039 79.7467 33.6974Z" fill="#1D2345"/>
<path d="M54.5809 37.7665C54.5809 38.2413 54.1958 38.6257 53.7213 38.6257C53.2465 38.6257 52.8621 38.2413 52.8621 37.7665C52.8621 37.2917 53.2465 36.9069 53.7213 36.9069C54.1958 36.9069 54.5809 37.2917 54.5809 37.7665Z" fill="white"/>
<path d="M79.0447 37.7665C79.0447 38.2413 78.6599 38.6257 78.1851 38.6257C77.711 38.6257 77.3259 38.2413 77.3259 37.7665C77.3259 37.2917 77.711 36.9069 78.1851 36.9069C78.6599 36.9069 79.0447 37.2917 79.0447 37.7665Z" fill="white"/>
<path d="M66.1109 61.1189C62.3997 61.1189 59.3909 58.1101 59.3909 54.3989V44.3193H72.8309V54.3989C72.8309 58.1101 69.8221 61.1189 66.1109 61.1189Z" fill="#F59FA5"/>
<mask id="mask1_1121_1429" style="mask-type:luminance" maskUnits="userSpaceOnUse" x="59" y="44" width="14" height="18">
<path d="M72.8309 61.1265H59.391V44.3269H72.8309V61.1265Z" fill="white"/>
</mask>
<g mask="url(#mask1_1121_1429)">
<path d="M79.2767 31.0207C79.2767 40.8366 73.9637 48.7937 67.4093 48.7937C60.8556 48.7937 55.5419 40.8366 55.5419 31.0207C55.5419 21.2048 60.8556 13.2474 67.4093 13.2474C73.9637 13.2474 79.2767 21.2048 79.2767 31.0207Z" fill="#1D2345"/>
</g>
<path d="M78.5064 31.6225C78.5064 41.4385 71.3006 47.5986 65.9581 47.5986C60.6156 47.5986 53.4099 41.4385 53.4099 31.6225C53.4099 21.807 59.0277 17.6534 65.9581 17.6534C72.8885 17.6534 78.5064 21.807 78.5064 31.6225Z" fill="#F59FA5"/>
<path d="M61.7615 20.5587C61.7615 20.5587 62.4869 33.4688 78.0899 30.6423C83.8525 29.5982 77.498 11.6972 62.3723 15.1349C62.3723 15.1349 56.919 10.1443 51.8306 13.9893C41.5176 21.7812 53.3584 30.7189 53.3584 30.7189C53.3584 30.7189 57.1779 21.5518 61.7615 20.5587Z" fill="#AC54A2"/>
<path d="M78.537 25.3064C78.6833 25.2932 78.7598 25.318 78.8499 25.3498C78.9382 25.3786 79.0115 25.4234 79.0841 25.4683C79.2245 25.5624 79.3474 25.6711 79.451 25.7907C79.6683 26.0241 79.8281 26.2881 79.9798 26.5536C80.2635 27.0923 80.49 27.6518 80.6691 28.2229C81.0378 29.3629 81.2803 30.5307 81.4958 31.6999C81.8821 34.0468 82.1673 36.3958 82.5845 38.7281C83.0148 41.0513 83.5163 43.3835 84.4773 45.5498C84.9645 46.6224 85.5309 47.675 86.2942 48.582C87.0466 49.4952 87.9438 50.2837 88.9419 50.9255C87.9361 50.2968 87.0265 49.5182 86.2592 48.6111C85.4806 47.7096 84.8981 46.6593 84.3941 45.587C83.4003 43.4214 82.8668 41.0848 82.4054 38.7613C81.9576 36.4316 81.6406 34.0752 81.2267 31.7492C80.9977 30.5912 80.7416 29.4359 80.3664 28.3239C80.184 27.7666 79.9557 27.2265 79.6814 26.7203C79.5359 26.4734 79.3828 26.2294 79.1924 26.031C79.1012 25.9274 78.998 25.841 78.8922 25.7714C78.8379 25.7393 78.7847 25.7068 78.7307 25.6911C78.684 25.6678 78.61 25.6674 78.6085 25.6638L78.537 25.3064Z" fill="#AC54A2"/>
<path d="M61.2265 33.2393C61.2265 33.8297 60.748 34.3086 60.1572 34.3086C59.5667 34.3086 59.0875 33.8297 59.0875 33.2393C59.0875 32.6485 59.5667 32.1696 60.1572 32.1696C60.748 32.1696 61.2265 32.6485 61.2265 33.2393Z" fill="#1D2345"/>
<path d="M56.1827 30.3203C57.5288 30.0884 58.8629 29.7861 60.1652 29.4013C60.8147 29.2014 61.4435 28.9513 62.0686 28.7109C62.6933 28.4655 63.3035 28.1898 63.8093 27.7302L63.8385 27.7521C63.74 27.8911 63.6394 28.041 63.5194 28.1701C63.3881 28.2842 63.2601 28.4097 63.1193 28.5151C62.9767 28.6161 62.8275 28.7091 62.6802 28.8061L62.2145 29.0453C61.5824 29.34 60.9103 29.5191 60.2425 29.6828C58.9055 30.0093 57.5503 30.2284 56.1871 30.3564L56.1827 30.3203Z" fill="#1D2345"/>
<path d="M70.088 33.2393C70.088 33.8297 70.5668 34.3086 71.1577 34.3086C71.7481 34.3086 72.2266 33.8297 72.2266 33.2393C72.2266 32.6485 71.7481 32.1696 71.1577 32.1696C70.5668 32.1696 70.088 32.6485 70.088 33.2393Z" fill="#1D2345"/>
<path d="M75.1278 30.3564C73.7642 30.2284 72.4086 30.0093 71.0719 29.6828C70.4042 29.5191 69.7324 29.34 69.1 29.0453L68.6346 28.8061C68.4873 28.7091 68.3378 28.6161 68.1952 28.5151C68.0548 28.4097 67.9264 28.2842 67.7951 28.1701C67.6751 28.041 67.5748 27.8911 67.476 27.7521L67.5052 27.7302C68.0114 28.1898 68.6211 28.4655 69.2459 28.7109C69.871 28.9513 70.4994 29.2014 71.1493 29.4013C72.452 29.7861 73.786 30.0884 75.1318 30.3203L75.1278 30.3564Z" fill="#1D2345"/>
<path d="M65.6572 35.3039C65.7254 35.6806 65.732 36.0661 65.6809 36.4505C65.6598 36.6438 65.6113 36.8353 65.5434 37.0271C65.4741 37.2156 65.3702 37.4108 65.1827 37.5643C65.1401 37.6055 65.0821 37.6321 65.0234 37.6573L64.9406 37.6927L64.8932 37.7109C64.8531 37.7215 64.8458 37.7364 64.8268 37.743C64.8257 37.7488 64.8308 37.7353 64.8264 37.7273C64.8202 37.7299 64.8563 37.8013 64.9147 37.8509C64.9719 37.9042 65.0405 37.9556 65.1124 38.0056C65.4103 38.1934 65.7455 38.3499 66.1156 38.4359C65.7338 38.5019 65.3355 38.4177 64.9738 38.2543C64.8826 38.2113 64.7925 38.162 64.7064 38.0935C64.6258 38.022 64.5219 37.9483 64.4832 37.7645C64.4672 37.6598 64.5168 37.5599 64.5773 37.4954C64.6339 37.4465 64.6992 37.3998 64.7509 37.3841L64.8341 37.3502L64.8789 37.3269C64.9063 37.3141 64.9355 37.3035 64.9595 37.2762C65.0679 37.197 65.1583 37.0533 65.2251 36.8954C65.2994 36.7401 65.3516 36.5683 65.403 36.3932C65.5022 36.0424 65.5744 35.6766 65.6572 35.3039Z" fill="#1D2345"/>
<path d="M53.4744 25.5093C53.3023 24.9713 53.2147 24.405 53.199 23.836C53.1845 23.2678 53.2388 22.6905 53.4033 22.1369C53.5699 21.5851 53.8424 21.0636 54.1991 20.6051C54.5477 20.135 55.0207 19.7795 55.5018 19.464C56.47 18.8239 57.7086 18.5792 58.8588 18.7948C59.4387 18.8921 59.9843 19.1212 60.4905 19.4013C60.996 19.6894 61.4632 20.0234 61.8822 20.4443L62.3592 20.9228L61.7086 20.7175C61.0638 20.5136 60.3793 20.3772 59.6995 20.3061C59.0186 20.2299 58.3264 20.2182 57.6528 20.3312C56.9781 20.4374 56.3271 20.6872 55.776 21.0927C55.2253 21.503 54.8242 22.092 54.5594 22.7365C54.7654 22.0712 55.1433 21.4447 55.6885 20.9837C56.2319 20.5205 56.9143 20.2386 57.6101 20.1022C58.3078 19.9589 59.0241 19.9439 59.729 19.999C60.4351 20.0657 61.1269 20.193 61.8144 20.4005L61.6404 20.6741C60.8574 19.9268 59.8508 19.3652 58.7917 19.143C57.7286 18.9333 56.5915 19.1376 55.6655 19.7317C55.2078 20.0329 54.7454 20.3407 54.4037 20.7729C54.0528 21.1916 53.7764 21.6752 53.5969 22.1982C53.2516 23.25 53.2304 24.4101 53.4744 25.5093Z" fill="#1D2345"/>
<path d="M49.0903 116.161C49.0903 116.161 45.2832 133.326 45.7854 145.881C46.288 158.436 49.0903 169 49.0903 169L71.1578 169L70.1431 140.859L84.4999 169L108.219 168.999C108.219 168.999 104.643 156.938 96.5992 136C92.7772 126.053 87.3829 114.141 87.3829 114.141C75.5625 117.484 62.6707 117.796 49.0903 116.161Z" fill="white"/>
<path d="M63.5558 137.24C64.1258 137.503 64.6846 137.787 65.2477 138.063L66.9202 138.921L68.5778 139.807C69.1277 140.106 69.6854 140.392 70.2288 140.704L70.0497 140.709C71.3309 139.937 72.5986 139.143 73.8914 138.39C75.1781 137.627 76.4703 136.873 77.7792 136.146C76.5425 136.99 75.2894 137.807 74.0311 138.616C72.7784 139.434 71.5001 140.211 70.2364 141.012L70.1511 141.065L70.0573 141.016C69.503 140.724 68.9621 140.407 68.4144 140.104L66.7787 139.179L65.1576 138.227C64.6229 137.899 64.0839 137.579 63.5558 137.24Z" fill="#62385E"/>
<path d="M47.509 122.894C47.8124 122.658 48.1111 122.422 48.3945 122.166C48.6844 121.92 48.9634 121.663 49.2351 121.398C49.7763 120.868 50.2913 120.313 50.7628 119.724C51.2453 119.143 51.6728 118.52 52.0648 117.874C52.1607 117.712 52.2618 117.551 52.3544 117.385L52.6115 116.879C52.8048 116.548 52.9241 116.186 53.1009 115.842C52.9208 116.587 52.6742 117.326 52.3103 118.01C52.2289 118.186 52.1396 118.358 52.0353 118.521L51.7344 119.018C51.5119 119.335 51.2942 119.656 51.0458 119.953C50.5553 120.552 50.0192 121.115 49.4222 121.606C48.8299 122.1 48.1979 122.55 47.509 122.894Z" fill="#62385E"/>
<path d="M81.7909 114.87C82.0615 115.229 82.3354 115.584 82.6293 115.921C82.9134 116.266 83.2056 116.605 83.5159 116.924C84.133 117.565 84.765 118.192 85.4696 118.729C86.168 119.269 86.916 119.743 87.7198 120.107C88.5328 120.45 89.3986 120.649 90.3005 120.705C89.8541 120.726 89.3956 120.768 88.9456 120.688C88.4883 120.649 88.0565 120.494 87.6163 120.368C86.7548 120.052 85.9693 119.567 85.245 119.016C84.5251 118.456 83.8839 117.805 83.3062 117.109C82.7326 116.41 82.2041 115.672 81.7909 114.87Z" fill="#62385E"/>
<path d="M67.689 115.113C67.8867 117.263 68.0562 119.414 68.2295 121.564L68.7412 128.014C68.8962 130.165 69.0832 132.313 69.278 134.46C69.3695 135.534 69.4808 136.606 69.6055 137.676C69.677 138.209 69.7182 138.749 69.8145 139.278L69.9454 140.076L70.1431 140.859L69.8914 140.087L69.7196 139.295C69.5953 138.768 69.5275 138.232 69.4286 137.701C69.2674 136.633 69.1248 135.562 68.9994 134.489C68.7459 132.345 68.5617 130.193 68.3779 128.043C68.2211 125.89 68.0654 123.738 67.9508 121.583C67.8356 119.428 67.7364 117.271 67.689 115.113Z" fill="#62385E"/>
<path d="M16.8741 81.5625C11.952 87.1351 3.53937 79.6357 1.07363 77.2163C0.751379 76.9001 0.686135 76.4056 0.911958 76.015L1.02377 75.8217C1.2849 75.3702 1.85048 75.1984 2.31846 75.4278L4.50882 76.5033L0.345395 72.9271C0.0184408 72.6459 -0.0895477 72.1863 0.0782513 71.7896C0.310493 71.2403 0.971076 71.0193 1.4872 71.3173L4.8097 73.2385L0.791571 69.5477C0.423041 69.2097 0.364905 68.6491 0.655937 68.2417L0.948976 67.8318C1.26853 67.3854 1.89067 67.2833 2.33586 67.6053L6.9986 70.9781L4.07888 67.7366C3.63438 67.2432 3.79153 66.4609 4.39201 66.1772C4.99701 65.892 5.70793 65.95 6.25826 66.33L13.9998 71.6769L11.9463 68.5623C11.4517 67.8118 11.7604 66.7957 12.5895 66.4478C13.1698 66.2042 13.839 66.3661 14.2438 66.8475C16.2001 69.1725 19.6578 74.5365 19.0623 76.9431C18.3372 79.8739 16.8741 81.5625 16.8741 81.5625Z" fill="#F59FA5"/>
<path d="M6.02416 77.7019C6.01961 77.707 6.00633 77.722 5.99707 77.7081C5.99138 77.6983 5.99039 77.6877 5.98926 77.6775C5.98755 77.6571 5.98824 77.6366 5.98926 77.6166C5.99181 77.5765 5.99637 77.5367 6.00177 77.497C6.01417 77.4182 6.03055 77.3401 6.04838 77.2628C6.08368 77.1075 6.12387 76.9536 6.16775 76.8004C6.26064 76.4962 6.3675 76.1964 6.49 75.9029C6.7322 75.3146 7.03034 74.7486 7.37724 74.2106C7.72983 73.6782 8.13258 73.1705 8.61909 72.7449C9.09845 72.3189 9.68113 71.9765 10.3094 71.8667C9.72457 72.114 9.24305 72.5115 8.81541 72.951C8.39159 73.3966 8.01861 73.8908 7.6821 74.4101C7.34048 74.9269 7.03676 75.4703 6.74715 76.0225C6.6051 76.3 6.4648 76.5794 6.33372 76.8635C6.26563 77.0046 6.2001 77.1468 6.13996 77.2916C6.10961 77.3638 6.08113 77.4368 6.05476 77.5105C6.04094 77.5469 6.02741 77.5838 6.01632 77.6213C6.01103 77.6399 6.00564 77.6589 6.00319 77.6775C5.9978 77.6957 6.00319 77.7223 6.02416 77.7019Z" fill="#1D2345"/>
<path d="M113.458 68.9738C118.38 74.5464 126.793 67.0474 129.258 64.6276C129.58 64.3114 129.646 63.8169 129.42 63.4263L129.308 63.233C129.047 62.7819 128.481 62.6097 128.013 62.8395L125.823 63.9143L129.986 60.338C130.313 60.0576 130.421 59.5977 130.253 59.2005C130.022 58.6516 129.361 58.4303 128.845 58.7286L125.522 60.6502L129.54 56.9594C129.909 56.621 129.967 56.0604 129.676 55.6534L129.383 55.2435C129.063 54.7964 128.441 54.695 127.996 55.0167L123.333 58.3898L126.253 55.1479C126.698 54.6545 126.54 53.8722 125.94 53.5885C125.335 53.3029 124.624 53.3613 124.074 53.7413L116.332 59.0885L118.385 55.9736C118.88 55.2231 118.571 54.2074 117.742 53.8595C117.162 53.6158 116.493 53.7774 116.088 54.2584C114.132 56.5838 110.674 61.9478 111.27 64.3541C111.995 67.2848 113.458 68.9738 113.458 68.9738Z" fill="#F59FA5"/>
<path d="M124.308 65.1131C124.329 65.1339 124.334 65.1069 124.329 65.089C124.326 65.07 124.321 65.0511 124.316 65.0325C124.305 64.9953 124.291 64.9581 124.277 64.922C124.251 64.8479 124.222 64.775 124.192 64.7028C124.132 64.5584 124.066 64.4158 123.998 64.2746C123.867 63.9905 123.727 63.7108 123.585 63.434C123.295 62.8815 122.991 62.3381 122.649 61.8216C122.313 61.3023 121.94 60.8078 121.516 60.3625C121.089 59.923 120.608 59.5255 120.023 59.2779C120.651 59.388 121.233 59.7297 121.713 60.1561C122.199 60.5817 122.602 61.0897 122.955 61.6222C123.301 62.1597 123.6 62.7257 123.842 63.314C123.965 63.6076 124.071 63.9074 124.164 64.2115C124.208 64.3647 124.248 64.5186 124.284 64.674C124.301 64.7513 124.317 64.8293 124.33 64.9081C124.336 64.9479 124.34 64.9876 124.342 65.0281C124.344 65.0478 124.344 65.0682 124.342 65.0886C124.342 65.0985 124.341 65.1094 124.334 65.1193C124.325 65.1335 124.313 65.1185 124.308 65.1131Z" fill="#1D2345"/>
<path d="M62.2243 15.2422C61.6568 14.4676 60.9639 13.7538 60.2093 13.1382C59.4522 12.5219 58.6064 12.008 57.6896 11.6692C56.7753 11.3275 55.7807 11.1885 54.8048 11.2979C53.8256 11.3979 52.8843 11.7582 52.0276 12.2476C52.8682 11.7327 53.8037 11.3395 54.7935 11.2071C55.78 11.066 56.8023 11.1758 57.7498 11.4971C58.7002 11.8155 59.5835 12.3162 60.3782 12.9234C61.1739 13.5343 61.8942 14.2283 62.5208 15.0307L62.2243 15.2422Z" fill="#AC54A2"/>
<mask id="mask2_1121_1429" style="mask-type:luminance" maskUnits="userSpaceOnUse" x="13" y="55" width="107" height="62">
<path d="M39.1208 106.05C32.8666 107.82 13.0338 83.7647 13.0338 83.7647L18.3766 77.0421L34.2539 89.0514C34.2539 89.0514 40.0012 65.5333 42.4115 63.1937C47.2475 58.5004 56.2257 55.3475 66.5026 55.3475C75.2493 55.3475 83.055 57.6316 88.167 61.2054C92.0554 63.9235 92.9405 67.6748 94.3851 71.1606C99.0201 82.3453 100.205 85.795 100.205 85.795L112.036 62.9866L119.36 67.0278C119.36 67.0278 109.933 102.698 98.4191 102.219C91.0853 101.913 83.3139 78.7311 83.3139 78.7311L80.4382 96.4071L87.667 115.556L49.0903 116.155C49.0903 116.155 53.2428 102.401 53.2931 97.205C53.3442 92.0095 49.7012 79.2442 49.7012 79.2442C49.7012 79.2442 47.2183 103.759 39.1208 106.05Z" fill="white"/>
</mask>
<g mask="url(#mask2_1121_1429)">
<path d="M43.4141 59.7445C43.4141 59.7445 46.4673 69.3117 49.9276 80.9143" stroke="#3631A9" stroke-width="0.364701" stroke-miterlimit="10"/>
<path d="M83.5141 79.2856C83.5141 79.2856 83.9211 64.8333 87.9922 59.3372" stroke="#3631A9" stroke-width="0.364701" stroke-miterlimit="10"/>
</g>
<path d="M53.1845 51.1398C56.6652 57.7095 68.844 50.9494 71.8076 49.1737C72.1949 48.9417 72.3743 48.4767 72.2459 48.0434L72.1821 47.8294C72.0344 47.3297 71.5249 47.0303 71.0162 47.1441L68.6347 47.6766L73.5195 45.1743C73.9031 44.9778 74.1158 44.5562 74.0457 44.1309C73.9484 43.543 73.3579 43.1729 72.7864 43.3421L69.1066 44.4325L73.8769 41.7848C74.3142 41.5419 74.5024 41.0105 74.3145 40.5466L74.1253 40.0795C73.9192 39.5703 73.3382 39.326 72.8302 39.5346L67.5074 41.7221L71.1048 39.2541C71.6526 38.8785 71.6828 38.0809 71.1653 37.6648C70.6445 37.2457 69.9392 37.136 69.3156 37.3767L60.5372 40.7629L63.2626 38.2151C63.9195 37.6013 63.8567 36.5415 63.1324 36.009C62.6251 35.6367 61.9369 35.637 61.4304 36.0101C58.9843 37.8132 52.1502 43.0726 52.1659 45.5511C52.1845 48.5704 53.1845 51.1398 53.1845 51.1398Z" fill="#1D2345"/>
<path d="M68.797 68.4031C68.2849 65.0621 66.4753 60.3593 65.6496 58.3275C65.4078 57.7323 64.8042 57.3629 64.1569 57.4147C63.2327 57.4887 62.6032 58.3749 62.8465 59.2594L63.8549 62.9304L57.9912 55.2892C57.5747 54.7458 56.8964 54.4635 56.2118 54.5478C55.532 54.632 55.1261 55.3399 55.4029 55.9595L57.2199 60.0289L53.737 55.2786C53.4047 54.8253 52.7621 54.7265 52.3052 55.058L51.8861 55.3618C51.4696 55.6641 51.3464 56.2254 51.5984 56.6711L54.3468 61.5241L51.7103 58.6065C51.3008 58.1532 50.582 58.158 50.1775 58.6164C49.8854 58.9479 49.8427 59.4275 50.0728 59.8038L53.001 64.592L51.2005 62.8546C50.8161 62.4833 50.2067 62.4702 49.8055 62.8247L49.6337 62.9764C49.2862 63.2835 49.191 63.7831 49.4051 64.1919C50.5758 66.4297 54.5003 73.4076 59.0624 75.7938C64.0854 83.2574 85.574 113.943 94.1999 106.036C102.781 98.1704 75.6716 74.2344 68.797 68.4031Z" fill="#1D2345"/>
<path d="M85.0732 29.0144C85.3431 28.6654 85.7085 28.39 86.1097 28.1902C86.5105 27.987 86.9569 27.8634 87.4106 27.8353C87.8624 27.8167 88.3241 27.8536 88.7465 28.0122C88.9645 28.0676 89.1589 28.1858 89.3592 28.2773C89.5513 28.3875 89.7311 28.5184 89.9055 28.6497C89.691 28.5892 89.4937 28.5031 89.2888 28.4422C89.0798 28.3926 88.8821 28.3149 88.6728 28.2872C88.2636 28.1924 87.8456 28.1771 87.4357 28.1986C87.0229 28.2172 86.6162 28.3138 86.2209 28.4506C85.8259 28.5906 85.4434 28.7788 85.0732 29.0144Z" fill="#A6B1C3"/>
</svg>
