<svg width="139" height="153" viewBox="0 0 139 153" fill="none" xmlns="http://www.w3.org/2000/svg">
<path d="M75.3006 89.7789H17.4657C11.0973 89.7789 7.95271 82.0391 12.5166 77.5975L77.8951 13.9697C82.6863 9.30678 90.6781 13.2513 89.891 19.8905L82.3473 83.5182C81.924 87.0891 78.8965 89.7789 75.3006 89.7789Z" fill="url(#paint0_linear_1156_1443)"/>
<path d="M63.0735 63.2211H120.908C127.277 63.2211 130.421 70.9609 125.857 75.4025L60.4789 139.03C55.6877 143.693 47.6959 139.749 48.483 133.11L56.0267 69.4818C56.4501 65.9109 59.4776 63.2211 63.0735 63.2211Z" fill="url(#paint1_linear_1156_1443)"/>
<path fill-rule="evenodd" clip-rule="evenodd" d="M53.7292 89.7965H77.2187C79.7818 89.7965 81.9397 87.8793 82.2415 85.3341L84.859 63.2563H61.3696C58.8065 63.2563 56.6485 65.1736 56.3468 67.7188L53.7292 89.7965Z" fill="url(#paint2_linear_1156_1443)"/>
<defs>
<linearGradient id="paint0_linear_1156_1443" x1="81.0982" y1="12.6449" x2="27.5857" y2="103.769" gradientUnits="userSpaceOnUse">
<stop stop-color="#FFB15C"/>
<stop offset="1" stop-color="#FF7A4D"/>
</linearGradient>
<linearGradient id="paint1_linear_1156_1443" x1="46.1248" y1="147.521" x2="104.732" y2="47.9124" gradientUnits="userSpaceOnUse">
<stop stop-color="#FFAD5C"/>
<stop offset="1" stop-color="#FF8450"/>
</linearGradient>
<linearGradient id="paint2_linear_1156_1443" x1="59.3042" y1="95.2731" x2="82.5944" y2="61.9397" gradientUnits="userSpaceOnUse">
<stop stop-color="#FF8300"/>
<stop offset="1" stop-color="#B06745"/>
</linearGradient>
</defs>
</svg>
