<svg width="17" height="16" viewBox="0 0 17 16" fill="none" xmlns="http://www.w3.org/2000/svg">
<path d="M6.34705 3.36969C6.43616 3.72611 6.48962 4.13599 6.52526 4.61716C6.54308 4.88448 6.50744 5.2409 6.45398 5.63296C6.32923 6.66658 6.16884 7.9497 7.07771 8.34177C7.18464 8.39523 7.25593 8.50215 7.2381 8.6269L6.95297 10.9258C7.50542 11.0327 7.86184 11.2466 8.11134 11.3892C8.30737 11.5139 8.30737 11.5139 8.46776 11.5139C8.61033 11.5139 8.62815 11.5139 8.82418 11.3892C9.05585 11.2466 9.41227 11.0327 9.94691 10.9258L10.1786 8.98332C10.1964 8.8764 10.2499 8.80511 10.3568 8.76947C11.7112 8.25266 12.4953 6.79133 13.03 5.81117L13.5646 4.81319C13.618 4.70627 13.6359 4.5637 13.5824 4.45677C13.5289 4.34984 13.4398 4.26074 13.3151 4.2251C13.1547 4.17163 12.9765 4.24292 12.8696 4.36767L12.228 5.20526C12.0498 5.43693 11.8359 5.63296 11.5864 5.79335C11.533 5.82899 11.4795 5.84682 11.4082 5.82899C10.1608 5.70425 9.75088 6.9339 9.73305 6.98736C9.69741 7.12993 9.53702 7.21904 9.39445 7.16557C9.25188 7.12993 9.16278 6.96954 9.21624 6.82697C9.37663 6.27452 10.0182 5.29436 11.2122 5.27654L12.5488 1.40937C12.6201 1.21334 12.5131 0.981663 12.2993 0.910379C12.1033 0.839094 11.8894 0.946021 11.8003 1.14205L10.7667 3.8865C10.7132 4.01124 10.5885 4.08253 10.4459 4.04689C10.3211 4.01124 10.232 3.8865 10.2499 3.74393L10.6419 0.447031C10.6776 0.233178 10.5172 0.0371461 10.3033 0.00150395C10.0895 -0.0163171 9.89344 0.126251 9.87562 0.322283L9.34099 3.70829C9.32317 3.85086 9.19842 3.93996 9.07367 3.93996C8.93111 3.93996 8.82418 3.83303 8.80636 3.69047L8.57468 0.821273C8.57468 0.714347 8.52122 0.625241 8.43212 0.553957C8.36083 0.482673 8.25391 0.447031 8.12916 0.464852C7.9153 0.482673 7.75492 0.660884 7.77274 0.874736L7.86184 3.77957C7.86184 3.92214 7.77274 4.02907 7.63017 4.04689C7.4876 4.06471 7.36285 3.9756 7.32721 3.85086L6.75694 1.69451C6.70347 1.49847 6.48962 1.37373 6.27577 1.42719C6.16884 1.44501 6.07973 1.51629 6.02627 1.6054C5.97281 1.69451 5.95499 1.80143 5.97281 1.90836L6.34705 3.36969Z" fill="black"/>
<path d="M0.608636 13.2965C0.929415 13.2252 1.14327 13.0827 1.32148 12.9757C1.55315 12.8332 1.73136 12.7263 2.12343 12.7263C2.51549 12.7263 2.6937 12.8332 2.92537 12.9757C3.21051 13.154 3.56693 13.3678 4.22631 13.3678C4.88569 13.3678 5.24212 13.154 5.52725 12.9757C5.77675 12.8332 5.93714 12.7263 6.3292 12.7263C6.72126 12.7263 6.89947 12.8332 7.13115 12.9757C7.41629 13.154 7.77271 13.3678 8.43209 13.3678C9.09147 13.3678 9.44789 13.154 9.73302 12.9757C9.98252 12.8332 10.1429 12.7263 10.535 12.7263C10.927 12.7263 11.1052 12.8332 11.3369 12.9757C11.6221 13.154 11.9785 13.3678 12.6379 13.3678C13.2972 13.3678 13.6537 13.154 13.9388 12.9757C14.1705 12.8332 14.3487 12.7263 14.7407 12.7263C15.1328 12.7263 15.311 12.8332 15.5427 12.9757C15.7209 13.0827 15.9348 13.2074 16.2377 13.2965C16.5407 13.3678 16.8436 13.154 16.8436 12.8332C16.8436 12.6193 16.6832 12.4233 16.4694 12.3698C16.309 12.3342 16.1843 12.2451 16.0239 12.156C15.7387 11.9778 15.3823 11.7639 14.7229 11.7639C14.0635 11.7639 13.7071 11.9778 13.422 12.156C13.1903 12.2985 13.0121 12.4055 12.62 12.4055C12.228 12.4055 12.0498 12.2985 11.8181 12.156C11.533 11.9778 11.1765 11.7639 10.5172 11.7639C9.85777 11.7639 9.50135 11.9778 9.21621 12.156C8.98454 12.2985 8.80633 12.4055 8.41427 12.4055C8.0222 12.4055 7.84399 12.2985 7.61232 12.156C7.32718 11.9778 6.97076 11.7639 6.31138 11.7639C5.652 11.7639 5.29558 11.9778 5.01044 12.156C4.76095 12.2985 4.60056 12.4055 4.20849 12.4055C3.81643 12.4055 3.63822 12.2985 3.40654 12.156C3.12141 11.9778 2.76499 11.7639 2.10561 11.7639C1.44623 11.7639 1.0898 11.9778 0.804668 12.156C0.662099 12.2451 0.537352 12.3164 0.376962 12.352C0.198751 12.4055 0.0383616 12.548 0.00271947 12.7263C-0.0329227 13.0827 0.287857 13.3678 0.608636 13.2965Z" fill="black"/>
<path d="M16.5763 14.5075C16.4159 14.4719 16.2912 14.3828 16.1308 14.2937C15.8456 14.1155 15.4892 13.9016 14.8298 13.9016C14.1705 13.9016 13.814 14.1155 13.5289 14.2937C13.2794 14.4362 13.119 14.5432 12.7091 14.5432C12.3171 14.5432 12.1389 14.4362 11.9072 14.2937C11.622 14.1155 11.2656 13.9016 10.6062 13.9016C9.94686 13.9016 9.59044 14.1155 9.3053 14.2937C9.05581 14.4362 8.8776 14.5432 8.48553 14.5432C8.09347 14.5432 7.91526 14.4362 7.68358 14.2937C7.39845 14.1155 7.04203 13.9016 6.38265 13.9016C5.72327 13.9016 5.36684 14.1155 5.08171 14.2937C4.83221 14.4362 4.67182 14.5432 4.27976 14.5432C3.8877 14.5432 3.70948 14.4362 3.47781 14.2937C3.19267 14.1155 2.83625 13.9016 2.17687 13.9016C1.51749 13.9016 1.16107 14.1155 0.875935 14.2937C0.733366 14.3828 0.608619 14.4541 0.448229 14.5075C0.270018 14.561 0.109629 14.7036 0.0739867 14.8818C0.00270239 15.2382 0.323482 15.5233 0.662082 15.4342C0.982861 15.3629 1.19671 15.2204 1.37492 15.1134C1.6066 14.9709 1.78481 14.8639 2.17687 14.8639C2.56894 14.8639 2.74715 14.9709 2.97882 15.1134C3.26396 15.2917 3.62038 15.5055 4.27976 15.5055C4.93914 15.5055 5.29556 15.2917 5.5807 15.1134C5.83019 14.9709 5.99058 14.8639 6.38265 14.8639C6.77471 14.8639 6.95292 14.9709 7.18459 15.1134C7.46973 15.2917 7.82615 15.5055 8.48553 15.5055C9.14491 15.5055 9.50133 15.2917 9.78647 15.1134C10.036 14.9709 10.1964 14.8639 10.5884 14.8639C10.9805 14.8639 11.1587 14.9709 11.3904 15.1134C11.6755 15.2917 12.0319 15.5055 12.6913 15.5055C13.3507 15.5055 13.7071 15.2917 13.9922 15.1134C14.2239 14.9709 14.4021 14.8639 14.7942 14.8639C15.1863 14.8639 15.3645 14.9709 15.5961 15.1134C15.7743 15.2204 15.9882 15.3451 16.2912 15.4342C16.5941 15.5055 16.8971 15.2917 16.8971 14.9709C16.9505 14.7392 16.7902 14.561 16.5763 14.5075Z" fill="black"/>
</svg>
