<svg width="14" height="15" viewBox="0 0 14 15" fill="none" xmlns="http://www.w3.org/2000/svg">
<path d="M6.33809 8.0625C6.76371 7.56 7.40684 7.125 8.08934 6.67688C9.12246 6 10.2943 5.20875 10.8512 4.02563C11.7887 2.03437 13.2887 1.54875 13.3543 1.52813H13.3675C13.2909 0.963219 13.0526 0.432517 12.6812 0L4.00934 8.67188L5.21871 9.88313C5.30496 9.59813 5.56184 8.98125 6.33809 8.0625Z" fill="black"/>
<path d="M11.0199 4.10457C10.4424 5.33645 9.24244 6.13332 8.19244 6.83457C7.52119 7.2827 6.88931 7.70269 6.48056 8.18457C5.59931 9.22707 5.40994 9.87207 5.37244 10.0371L6.30994 10.9746L10.8662 6.43894C10.8662 6.43894 13.5549 4.09332 13.3881 1.71582C13.2043 1.78145 11.8674 2.3177 11.0199 4.10457Z" fill="black"/>
<path d="M5.41745 11.8876L3.10558 9.57568L0.480576 12.2007C0.328244 12.3526 0.207382 12.533 0.124916 12.7317C0.0424495 12.9304 0 13.1434 0 13.3585C0 13.5736 0.0424495 13.7866 0.124916 13.9853C0.207382 14.184 0.328244 14.3644 0.480576 14.5163C0.632622 14.6687 0.813233 14.7896 1.01207 14.8721C1.2109 14.9546 1.42406 14.997 1.63933 14.997C1.85459 14.997 2.06775 14.9546 2.26658 14.8721C2.46542 14.7896 2.64603 14.6687 2.79808 14.5163L5.41745 11.8876Z" fill="black"/>
<path d="M12.7206 10.875C14.8993 10.875 12.7206 7.17188 12.7206 7.17188C12.7206 7.17188 10.5399 10.875 12.7206 10.875Z" fill="black"/>
<path d="M9.63807 11.2969C9.63807 11.2969 7.45932 15 9.63807 15C11.8168 15 9.63807 11.2969 9.63807 11.2969Z" fill="black"/>
<path d="M3.1716 8.10007L2.53387 8.73779L6.25414 12.4581L6.89186 11.8203L3.1716 8.10007Z" fill="black"/>
</svg>
